<svg width="722" height="722" viewBox="0 0 722 722" fill="none" xmlns="http://www.w3.org/2000/svg">
<path fill-rule="evenodd" clip-rule="evenodd" d="M643.111 398.414C643.039 398.392 642.968 398.37 642.897 398.348C642.41 398.194 642.327 397.918 642.647 397.518C642.981 397.104 643.326 396.712 643.67 396.322C644.181 395.741 644.69 395.163 645.157 394.518C647.063 391.864 648.92 389.208 650.727 386.548C654.947 380.361 658.393 373.714 661.067 366.608C665.573 354.614 670.253 342.178 675.107 329.298C676.48 325.658 677.733 321.938 678.867 318.138C681.747 308.448 684.657 298.568 686.397 288.698C688.247 278.258 689.747 268.198 689.877 257.418C690.137 235.198 687.913 213.381 683.207 191.968C681.887 185.974 679.927 180.014 677.327 174.088C672.373 162.794 667.237 151.451 661.917 140.058C659.71 135.318 656.563 130.138 652.477 124.518C651.57 123.278 650.577 122.094 649.497 120.968C648.639 120.074 647.808 119.162 646.978 118.254C645.331 116.449 643.692 114.654 641.877 113.018C636.963 108.591 631.983 103.854 626.937 98.8078C620.947 92.8078 613.897 88.1978 606.377 84.3378C600.91 81.5178 595.857 78.6011 591.217 75.5878C589.248 74.3079 587.17 73.2902 585.088 72.2703C584.209 71.8398 583.329 71.4089 582.457 70.9578C580.283 69.8378 577.973 68.9011 575.527 68.1478C570.502 66.6125 565.631 64.7312 560.782 62.8586C557.988 61.7794 555.201 60.7032 552.397 59.6977C546.942 57.7445 540.936 56.0209 534.994 54.3156C531.992 53.454 529.007 52.5972 526.117 51.7178C524.817 51.3244 523.497 50.9944 522.157 50.7277C520.908 50.4818 519.668 50.1902 518.425 49.898C516.486 49.4418 514.54 48.9843 512.547 48.6977C508.126 48.0673 503.721 47.2739 499.321 46.4814C492.553 45.2625 485.798 44.0459 479.017 43.4278C471.923 42.7811 465.17 42.3477 458.757 42.1277C443.077 41.5877 426.597 42.7678 410.367 45.5178C402.98 46.7711 395.893 48.0377 389.107 49.3177C378.893 51.2311 368.257 54.1577 357.197 58.0977C353.695 59.3452 350.365 60.8024 346.997 62.2763C344.912 63.189 342.811 64.1081 340.647 64.9878C330.217 69.2285 321.213 74.859 311.617 80.8594C310.917 81.297 310.214 81.7366 309.507 82.1777C303.9 85.6844 298.747 89.4511 294.047 93.4777C292.593 94.7244 291.243 96.1244 289.997 97.6777C286.977 101.468 283.867 105.118 280.357 108.518C276.83 111.931 273.343 115.454 269.897 119.088C263.117 126.238 258.527 134.868 254.107 143.568C252.02 147.674 249.86 151.624 247.627 155.418C244.84 160.131 242.287 165.184 239.967 170.578C239.908 170.71 239.805 170.818 239.676 170.884C239.547 170.95 239.398 170.969 239.257 170.938C234.403 169.864 229.567 168.878 224.747 167.978C221.72 167.404 217.79 167.081 212.957 167.008C202.93 166.854 194.703 167.068 188.277 167.648C182.17 168.194 175.817 168.674 169.217 169.088C163.43 169.454 157.89 170.141 152.597 171.148C147.71 172.074 142.423 173.598 136.737 175.718C131.557 177.644 126.43 179.548 121.357 181.428C119.455 182.126 117.652 183.04 115.848 183.954C114.55 184.612 113.252 185.27 111.917 185.848C109.783 186.768 107.533 187.991 105.167 189.518C96.4668 195.138 90.6635 198.748 87.7568 200.348C80.4768 204.361 74.1535 209.264 68.7868 215.058C63.7768 220.478 58.5668 225.688 53.1868 230.668C46.2568 237.078 40.9968 243.848 36.1368 252.298C31.4635 260.444 26.9001 268.171 22.4468 275.478C19.9401 279.584 16.9168 285.461 13.3768 293.108C10.5835 299.128 8.53014 304.638 7.21681 309.638C2.81681 326.348 0.196781 341.348 0.0667809 357.548L0.0571485 358.643C-0.0814541 374.33 -0.220434 390.06 2.90681 405.618C3.80681 410.091 4.76013 414.184 5.76679 417.898C7.99346 426.084 11.3868 434.964 15.9468 444.538C17.6268 448.064 19.1968 451.491 20.6568 454.818C21.9656 457.799 23.4788 460.763 24.9907 463.724C27.0483 467.754 29.1034 471.78 30.6368 475.838C34.2435 485.384 37.5334 492.491 40.5068 497.158C45.3535 504.758 52.5401 515.038 62.0668 527.998C65.0801 532.098 68.2168 535.891 71.4768 539.378C75.3634 543.544 78.9435 546.881 82.2168 549.388C86.9635 553.021 91.9768 556.781 97.2568 560.668C102.003 564.161 106.753 567.181 111.507 569.728C117.273 572.821 122.993 575.981 128.667 579.208C135.793 583.261 142.37 586.451 148.397 588.778C154.55 591.158 160.687 593.254 166.807 595.068C173.8 597.141 181.533 598.298 190.007 598.538C201.84 598.864 213.233 599.181 224.187 599.488C233.607 599.748 244.57 599.304 257.077 598.158C263.097 597.604 269.313 596.624 275.727 595.218C281.953 593.851 288.25 592.454 294.617 591.028C297.65 590.348 300.67 589.408 303.677 588.208C305.831 587.348 307.992 586.521 310.147 585.695C316.239 583.363 322.291 581.047 328.037 578.048C330.851 576.574 333.663 575.122 336.471 573.672C345.628 568.945 354.737 564.242 363.707 558.878C365.273 557.942 366.608 556.835 367.936 555.734C369.092 554.775 370.243 553.821 371.537 552.988C371.816 552.808 372.155 552.745 372.48 552.813C372.805 552.88 373.091 553.072 373.277 553.348C374.642 555.383 375.99 557.446 377.342 559.514C382.466 567.355 387.636 575.266 393.927 581.968C397.127 585.388 400.367 588.654 403.647 591.768C407.917 595.818 411.297 600.198 414.747 604.818C418.997 610.488 424.967 616.938 429.817 621.018C436.097 626.291 441.937 631.768 447.337 637.448C451.217 641.528 455.707 645.298 460.247 648.208C465.987 651.881 472.18 655.834 478.827 660.068C482.78 662.581 486.89 664.714 491.157 666.468C497.337 669.008 503.533 671.261 509.747 673.228C514.347 674.678 519.067 675.668 523.847 676.448C534.64 678.208 546.667 678.838 559.927 678.338C568.247 678.028 578.027 676.728 585.367 673.988C589.813 672.321 594.153 670.674 598.387 669.048C606.001 666.126 613.312 662.833 620.771 659.472C622.707 658.6 624.653 657.724 626.617 656.848C634.507 653.338 641.497 649.828 648.337 645.448C651.25 643.581 654.393 641.118 657.767 638.058C661.106 635.018 664.653 632.277 668.182 629.55C671.84 626.724 675.478 623.912 678.847 620.798C684.273 615.771 688.784 610.378 692.377 604.618C695.01 600.384 698.804 593.261 703.757 583.248C705.784 579.141 707.317 575.251 708.357 571.578C710.483 564.058 712.797 556.778 715.297 549.738C718.677 540.228 720.607 530.088 720.927 520.378C721.187 512.104 721.103 505.228 720.677 499.748C720.263 494.434 719.15 487.878 717.337 480.078C714.89 469.531 710.56 459.971 704.347 451.398C701.172 447.02 698.132 442.57 695.083 438.108C693.723 436.119 692.362 434.127 690.987 432.138C689.04 429.318 686.714 426.758 684.007 424.458C679.234 420.398 674.197 416.844 668.897 413.798C664.817 411.444 660.897 408.944 657.137 406.298C655.327 405.018 653.418 403.984 651.511 402.95C649.603 401.916 647.697 400.883 645.897 399.608C645.078 399.021 644.076 398.712 643.111 398.414ZM452.224 265.224C452.24 265.313 452.23 265.404 452.197 265.488C450.397 270.108 448.567 274.588 446.097 279.198C444.417 282.338 442.84 285.381 441.367 288.328C439.855 291.35 438.144 294.38 436.416 297.439C434.85 300.21 433.271 303.005 431.817 305.838C430.806 307.798 429.73 309.718 428.654 311.638C426.885 314.793 425.116 317.95 423.637 321.288C422.63 323.549 421.391 325.694 420.151 327.841C419.236 329.426 418.32 331.013 417.497 332.648C417.37 332.897 417.195 333.118 416.982 333.298C416.769 333.478 416.522 333.614 416.255 333.698C415.989 333.782 415.709 333.812 415.431 333.786C415.153 333.76 414.883 333.679 414.637 333.548C412.45 332.388 410.143 331.278 407.717 330.218C399.93 326.818 390.92 322.941 380.687 318.588C378.127 317.501 375.47 317.001 372.717 317.088C368.857 317.208 364.277 318.828 364.557 323.408C364.629 324.556 364.714 325.691 364.798 326.823C365.015 329.731 365.229 332.613 365.237 335.608C365.238 337.037 365.238 338.464 365.238 339.891C365.24 352.199 365.241 364.466 365.797 377.038C366.007 381.734 366.172 386.475 366.337 391.197C366.61 399.044 366.882 406.841 367.357 414.308C368.487 432.018 369.547 448.928 369.967 466.258C370.14 473.258 370.433 480.651 370.847 488.438C370.852 488.547 370.886 488.653 370.946 488.744C371.006 488.835 371.09 488.909 371.188 488.957C371.286 489.005 371.395 489.025 371.504 489.017C371.613 489.008 371.717 488.971 371.807 488.908C376.273 485.874 380.57 482.598 384.697 479.078C388.889 475.493 393.332 472.293 397.775 469.094C401.153 466.661 404.531 464.228 407.797 461.628C411.966 458.307 416.251 455.178 420.519 452.061C424.399 449.228 428.264 446.405 432.017 443.458C440.383 436.898 448.73 430.424 457.057 424.038C458.351 423.047 459.668 421.874 460.968 420.716C462.41 419.431 463.83 418.166 465.177 417.188C474.157 410.661 482.797 403.748 491.097 396.448C492.916 394.851 494.875 393.499 496.843 392.142C498.768 390.814 500.701 389.481 502.517 387.908C506.647 384.318 505.457 378.108 500.947 375.758C494.267 372.271 486.99 369.018 479.117 365.998C478.844 365.894 478.597 365.732 478.394 365.523C478.19 365.314 478.035 365.063 477.939 364.788C477.842 364.513 477.808 364.22 477.837 363.929C477.866 363.639 477.958 363.359 478.107 363.108C485.22 351.088 492.08 339.358 498.687 327.918C500.373 324.993 501.93 321.949 503.479 318.917C504.934 316.072 506.382 313.239 507.927 310.528C514.78 298.501 519.987 288.631 523.547 280.918C526.08 275.444 528.54 269.734 530.927 263.788C534.853 254.021 538.27 243.611 541.177 232.558C542.11 229.011 542.233 225.748 541.547 222.768C540.653 218.914 539.337 215.521 537.597 212.588C536.023 209.934 533.293 206.988 529.407 203.748C522.797 198.248 513.627 196.138 505.217 197.168C501.47 197.628 496.873 198.731 491.427 200.478C484.527 202.688 477.527 204.938 470.747 207.668C460.113 211.941 449.813 215.964 439.847 219.738C433.983 221.961 428.477 224.425 422.975 226.887C419.517 228.435 416.06 229.982 412.517 231.468C405.41 234.45 398.594 237.83 391.534 241.33L391.197 241.498C388.93 242.624 388.373 242.061 389.527 239.808C390.05 238.782 390.499 237.752 390.949 236.72C391.376 235.739 391.804 234.757 392.297 233.778C400.17 218.111 408.653 203.048 417.747 188.588C427.787 172.618 436.247 150.488 425.737 132.688C422.95 127.968 418.937 124.654 413.697 122.748C409.35 121.161 405.193 120.178 401.227 119.798C397.613 119.451 393.713 120.041 389.527 121.568C378.22 125.694 369.38 132.848 363.007 143.028C361.938 144.734 360.836 146.371 359.74 147.999C357.676 151.065 355.633 154.099 353.877 157.508C353.127 158.968 352.37 160.42 351.615 161.869C349.712 165.522 347.818 169.159 346.057 172.868C335.99 194.048 329.293 207.788 325.967 214.088C315.707 233.508 305.633 253.491 295.747 274.038C293.62 278.451 292.447 281.938 292.227 284.498C291.88 288.571 292.243 292.431 293.317 296.078C294.677 300.711 296.21 304.591 297.917 307.718C300.157 311.838 305.157 316.948 310.107 318.178C317.497 320.008 326.397 319.558 333.787 319.168C335.193 319.094 336.633 318.774 338.107 318.208C338.442 318.079 338.776 317.951 339.109 317.824C345.367 315.428 351.296 313.159 357.477 310.168C366.35 305.874 374.92 301.838 383.187 298.058C386.774 296.415 390.175 294.471 393.567 292.531C397.692 290.173 401.804 287.822 406.227 286.028C411.537 283.878 416.907 281.688 421.807 278.818C431.247 273.278 441.077 267.768 451.617 264.848C451.703 264.822 451.795 264.822 451.882 264.846C451.968 264.871 452.046 264.919 452.107 264.986C452.167 265.053 452.208 265.135 452.224 265.224Z" fill="#03B3DC"/>
</svg>
