<svg width="2105" height="746" fill="none" xmlns="http://www.w3.org/2000/svg"><g clip-path="url(#a)"><path d="m752.7 405.4 12.5 7.5c.3.1.5.4.7.7 2.6 3.5 5.9 6 8.5 9.7l10 13.7a188.6 188.6 0 0 1 18.7 32 121 121 0 0 1 8.7 22 67 67 0 0 0 1.7 5.3c1 2.4 1.2 4.8 2 7.3a138 138 0 0 1 6.9 30.5c.8 5.8 1.2 12 1.2 18.8 0 7.7 0 14.7-.2 21-.1 4.3-.9 9.9-2.3 16.9a918.7 918.7 0 0 1-6.3 29 138.8 138.8 0 0 1-27.7 57.5l-6.5 8.7a44.7 44.7 0 0 1-3.7 4.4 73.8 73.8 0 0 0-3.6 4c-2.5 3.1-5.5 5-8.5 7.5a36 36 0 0 1-3.7 2.7l-12.3 8c-2.7 1.7-5.6 3-8.1 4.9-2 1.3-4.1 2.4-6.2 3.2-3 1.1-5.5 2.6-8.6 3.6a1273 1273 0 0 0-22.1 7.3c-2.3.8-4.5 1.4-6.6 1.9-3 .6-6 1.8-9 2.1-3.6.4-7 1.4-10.6 1.8l-10 1.5c-3.7.6-7.4 1-11 1.4-6 .7-12.1 1.1-18.1 2.3l-7.1 1c-7 1-12.9 1.5-17.8 1.6-7.6.2-15.9.3-24.7.2-2.6 0-5-.2-7-.5-3.3-.5-6.3-.6-9.5-1.4-3.2-.7-6.5-1.3-10-1.7a143.9 143.9 0 0 1-42-12.8 30.5 30.5 0 0 1-7-4.3c-2.8-2.4-5.8-4.3-8.5-7-4.3-4-8.7-7.7-13.3-10.9-4.3-3-7.3-5.4-11.1-8-3.4-2.3-5.3-5.8-7.9-8.9a47.6 47.6 0 0 1-3.7-5c-2.6-4.3-5.5-8.8-8.7-12.7-7-8.5-14.3-16.8-20.3-25.8-5.8-8.8-11.1-17.4-18.5-25-.3-.3-.5-.3-.8-.1-3.8 2.4-7.8 4.7-12 6.8-3.6 1.8-7 4.1-10.7 5.7a1081 1081 0 0 0-11.4 4.8c-3.5 1.5-7 2.8-10.7 3.9a11443.1 11443.1 0 0 1-25.5 7.2l-8.6 2c-9.3 1.6-18.1 3-26.3 4.2a229.9 229.9 0 0 1-36.7 2.6 199.5 199.5 0 0 1-60.1-8.1c-4-1.4-8.2-2.6-12.4-3.6-4.1-1-8.2-2.2-12.1-3.6l-26.3-9.2a265.9 265.9 0 0 1-43.7-23c-3.9-2.7-7.8-5.2-11.6-7.5A107.9 107.9 0 0 1 87 583.6a35.6 35.6 0 0 0-7.7-6A82.9 82.9 0 0 1 62.1 564c-4.4-4.4-7.7-9.6-11.5-14.5-4.9-6.1-9-13.4-13.2-20.3A117.8 117.8 0 0 1 24 497.5c-2.2-8.7-4.9-18.4-8.2-29a633.2 633.2 0 0 1-13.7-57.2c-.4-3.2-1.2-6-1.4-9.3a296 296 0 0 1-.6-25.4c.1-3.7.4-7.3.9-10.9l2.1-14c2.2-12.3 5.9-24.5 10.6-36 4-10 7.4-20.3 11.3-30.2 2.5-6.4 5.2-12.3 8-17.7 1.7-3 5-8.4 10-15.9 4.5-6.6 8.5-13.4 12.6-20.3 1.4-2.4 2.8-4.5 4.3-6.4 2-2.8 3.8-5.7 6.2-8.2 4.4-4.7 8.4-10 12.6-14.6 4.3-4.7 8.3-9.7 13-13.9 2-2 4-4.2 6.4-6a969 969 0 0 0 20-14.8c8-6 16.3-11.3 25.3-15.4a491 491 0 0 0 14.1-6.8c4-2 8.4-3.7 13-5.1 5.9-1.8 12-3.8 18.4-6 2.9-1 5.8-1.5 8.7-2.4 2-.6 4.2-1 6.7-1.4l6.8-.8c9.9-1.2 19.7-1.3 29.4-.5 4 .4 7.3 1.7 11 2.3 3.1.6 5.9 2 8.7 3.2a1.7 1.7 0 0 0 2.3-1c1-2.8 3.2-5.1 4.6-7.7l5.3-10.2c2-3.8 4.7-8.2 7.9-13.1 2.1-3.2 4.6-6.3 7.4-9.1A377.5 377.5 0 0 0 300 81.2c5.2-5.2 10.7-10.5 16.4-15.7 1.3-1.3 2.9-2.5 4.6-3.6l6.5-4.7c6.2-4 12-8.4 17.8-12.9 1.8-1.4 3.6-2.6 5.4-3.7 2.6-1.5 5-3.2 7.6-4.6L378 25.4c3.5-1.8 7-3.3 10.7-4.3l13-3.4c5.4-1.3 10.6-3 15.9-4.6 2.5-.7 4.8-1.2 6.9-1.5 3.1-.4 6.2-1.1 9.4-1.5 3.7-.4 7.2-1 10.7-2 2.1-.6 4.2-1 6.2-1.4 2.9-.4 5.6-1.2 8.4-1.5 4.5-.5 9.2-1 14.2-1.8 5.7-.7 11.2-.3 16.8-.7 9-.7 17.8-1.1 26.4-1.3 1.9 0 3.8-.2 5.8-.5 2.6-.3 5.2 0 7.8-.4 3.6-.5 7.2 0 11-.3 2.9-.3 5.8.3 8.8 0h3.5c4.1 1 8.8 1.3 12.3 2C576.5 4 587 6 597.5 7.8c2.5.5 4.7 1.1 6.6 1.8 3 1 6 1.9 8.9 3.2 4 1.7 8 3.3 12.1 4.6 3.6 1.1 6.9 2.7 10.3 4l4.2 1.9a60816.8 60816.8 0 0 0 29.7 14.2c2 1 4 2.3 5.9 3.6 8 5.8 14.8 11 20.7 15.4A172.5 172.5 0 0 1 729 90.7a356 356 0 0 0 11 14.2 102 102 0 0 1 10.9 17.6c4.1 8.2 8.4 16.3 12.9 24.4a145.7 145.7 0 0 1 12.5 31c.6 3 1.6 5.8 2.2 9 1.8 9.6 3 18 3.5 25.5.3 4.5.4 10.2.3 17.1-.1 5.8 0 11.6.3 17.6.4 10.5.5 20.8.1 30.8a573.8 573.8 0 0 1-6.5 60.8 121 121 0 0 1-3 13.5c-2.1 7.4-4.4 15-6.7 22.4-.8 2.4-1.6 4.7-2.6 6.8-1.3 3-2.4 6.1-4 9-2.9 5-5.3 9.7-7.4 14.5 0 .2 0 .4.2.5Z" fill="#F9FCF5"/><path d="M696.4 412.8c1 .3 2.2.7 3 1.3 3.6 2.5 7.7 4.1 11.3 6.7 3.7 2.6 7.7 5.1 11.7 7.5a101 101 0 0 1 15.1 10.6c2.8 2.3 5 4.9 7 7.7 4.5 6.5 8.8 13 13.4 19.3a78.6 78.6 0 0 1 13 28.7 136.4 136.4 0 0 1 3.6 40.3 98.5 98.5 0 0 1-5.7 29.3c-2.5 7-4.8 14.3-6.9 21.9a69 69 0 0 1-4.6 11.6c-5 10-8.7 17.2-11.4 21.4a79.3 79.3 0 0 1-13.5 16.2c-6.6 6.1-14.3 11-21 17.2-3.5 3.1-6.6 5.6-9.5 7.4-6.9 4.4-13.9 8-21.7 11.4-9.6 4.3-18.7 8.6-28.3 12.2a1678 1678 0 0 1-13 5c-7.3 2.7-17.1 4-25.4 4.3-13.3.5-25.3-.1-36.1-1.9-4.8-.8-9.5-1.7-14.1-3.2-6.2-2-12.4-4.2-18.6-6.8a78.7 78.7 0 0 1-12.3-6.4l-18.6-11.8c-4.5-3-9-6.7-13-10.8a214 214 0 0 0-17.4-16.4c-4.9-4-10.9-10.5-15.1-16.2-3.5-4.6-6.8-9-11.1-13-3.3-3.2-6.5-6.4-9.7-9.8-8-8.5-14.1-19-20.7-28.7a1.3 1.3 0 0 0-1.7-.3c-2.8 1.8-5 4.1-7.9 5.9-11.7 7-23.6 12.9-35.6 19.1-7.8 4-16.1 6.9-24.4 10.2-3 1.2-6 2.1-9 2.8l-19 4.2a152 152 0 0 1-18.6 3 280.7 280.7 0 0 1-32.9 1.3l-34.1-1a90.5 90.5 0 0 1-23.3-3.5 240 240 0 0 1-18.4-6.2 149 149 0 0 1-19.7-9.6l-17.1-9.5c-4.8-2.5-9.6-5.6-14.3-9l-15-11.3a125.2 125.2 0 0 1-20.1-21.4A605 605 0 0 1 94 511.6c-3-4.6-6.2-11.7-9.8-21.3-2.7-7-7-14-10-21L69.5 459a160.7 160.7 0 0 1-13-38.9c-3.3-16-3-32-2.9-48 .1-16.3 2.8-31.3 7.2-48 1.3-5 3.3-10.5 6.1-16.5 3.6-7.7 6.6-13.5 9-17.6 4.5-7.3 9.1-15 13.8-23.2a88 88 0 0 1 17-21.7c5.4-5 10.6-10.1 15.6-15.6a75 75 0 0 1 19-14.7c3-1.6 8.7-5.2 17.4-10.8 2.4-1.5 4.6-2.8 6.8-3.7 3.2-1.4 6.1-3.2 9.4-4.4l15.4-5.7a98.1 98.1 0 0 1 32.5-6.6c6.6-.4 13-1 19-1.5 6.4-.5 14.7-.8 24.7-.6 4.8 0 8.8.4 11.8 1a448.7 448.7 0 0 1 15 2.9l.2-.3a133 133 0 0 1 7.7-15.2c2.2-3.8 4.4-7.7 6.4-11.8A100.7 100.7 0 0 1 334 123c3.5-3.4 6.6-7 9.6-10.8 1.3-1.6 2.6-3 4-4.2 4.8-4 10-7.8 15.6-11.3 10.3-6.5 19.9-12.7 31-17.2 5.8-2.3 11-4.9 16.6-7 11.1-3.9 21.7-6.8 32-8.7l21.2-3.8a242.4 242.4 0 0 1 68.7-2c11.1 1 22.3 3.6 33.5 5.2 3.3.4 6.4 1.4 9.6 2l4 1c8.6 2.6 18 5 26.2 8 7.7 2.7 15.3 6 23.2 8.4 2.4.8 4.7 1.7 6.9 2.8 3 1.6 6 2.8 8.8 4.7 4.6 3 9.7 5.9 15.1 8.7a80.6 80.6 0 0 1 20.6 14.5c5 5 10 9.8 15 14.2 2.6 2.5 5 5.3 7.5 8a95.6 95.6 0 0 1 12.4 19c5.4 11.4 10.5 22.8 15.5 34 2.6 6 4.5 12 5.9 18 4.7 21.4 6.9 43.2 6.6 65.4-.1 10.8-1.6 20.8-3.5 31.3a268 268 0 0 1-11.3 40.6l-14 37.3a94 94 0 0 1-10.3 20l-5.6 7.9-2.5 3c-.3.4-.2.7.2.8Z" fill="#03B3DC"/><path d="M505.7 280a.5.5 0 0 0 0-.5.5.5 0 0 0-.5-.2c-10.6 3-20.4 8.5-29.8 14-5 2.9-10.3 5-15.6 7.2-8 3.3-15.1 8.4-23 12L411 324.6c-6.5 3.2-12.7 5.5-19.4 8-1.4.7-2.9 1-4.3 1-7.4.4-16.3.9-23.7-1-4.9-1.2-9.9-6.3-12.1-10.4-1.7-3.1-3.3-7-4.6-11.6-1.1-3.7-1.5-7.5-1.1-11.6.2-2.6 1.4-6 3.5-10.5 9.9-20.5 20-40.5 30.2-60 3.3-6.2 10-20 20.1-41.2l7.8-15.3c2.7-5.2 6-9.6 9.2-14.5a51.1 51.1 0 0 1 26.5-21.4c4.2-1.6 8-2.2 11.7-1.8 4 .4 8 1.3 12.4 3 5.3 1.8 9.3 5.1 12 9.9 10.6 17.8 2.1 39.9-8 55.9a542 542 0 0 0-25.4 45.2l-2.7 6c-1.2 2.2-.6 2.8 1.6 1.7 7.2-3.6 14.1-7 21.4-10 9.1-3.9 17.7-8.2 27.3-11.8l30.9-12c6.8-2.8 13.8-5 20.7-7.2 5.4-1.8 10-2.9 13.8-3.3 8.4-1 17.5 1 24.2 6.5a37 37 0 0 1 8.1 8.9c1.8 2.9 3.1 6.3 4 10.2.7 3 .6 6.2-.4 9.7a263 263 0 0 1-17.6 48.4c-3.6 7.7-8.8 17.6-15.6 29.6-3.2 5.6-6 11.7-9.3 17.4a3846.6 3846.6 0 0 1-20.8 36 2 2 0 0 0 1.3 2c7.8 3.1 15.1 6.4 21.8 9.8a7.4 7.4 0 0 1 1.6 12.2c-3.7 3.2-7.9 5.4-11.5 8.5-8.3 7.3-16.9 14.2-25.9 20.8-2.5 1.8-5.4 4.7-8.1 6.8l-25 19.4c-8 6.2-16.3 11.9-24.3 18.2-7.5 6-15.7 11.1-23 17.5a147.7 147.7 0 0 1-13.3 9.9.6.6 0 0 1-.5-.3l-.1-.3-.9-22.2a1307 1307 0 0 0-2.6-52c-.8-11.9-1-24.7-1.6-37.2-.6-14-.5-27.7-.5-41.4 0-4.2-.4-8.1-.7-12.2-.3-4.6 4.3-6.2 8.2-6.3 2.7-.1 5.4.4 8 1.5l27 11.6a101.2 101.2 0 0 1 7.7 3.6 2 2 0 0 0 2-1.2c2-3.8 4.4-7.4 6.2-11.3 2.4-5.4 5.5-10.3 8.2-15.5 3-6 6.6-11.7 9.5-17.5l4.7-9.1c2.5-4.6 4.3-9.1 6.1-13.7Z" fill="#F9FCF5"/><path d="M1934.9 365.7c-3.8-.3-7.2 0-10.4 1-17 4.6-25.7 16.3-36.7 28.8a96.6 96.6 0 0 0-19.5 32.2c-1.7 4.6-5 7.7-9.8 9.1-5.6 1.7-10.6 4.3-16.6 5-13.2 1.4-24.9 1.6-36-4.3-7.5-4-9.7-13.2-10.2-21-2-28-4.2-56.2-6.5-84.6a513 513 0 0 1-2.2-42.6l.1-53.1c0-17.3 4.5-32.7 13.3-46.3 5.1-8 16.1-9.6 24.8-9.9 4.6-.1 9 1 13.2 3.1 12 6.5 23.6 14.3 21.5 29.4-1.2 9.1.3 18.5.3 27.9.3 21.8.8 41.6.6 64a1633.4 1633.4 0 0 0 .6 45.5l.5.4a1.1 1.1 0 0 0 1.2-.2c4.3-4 9-6 14.1-8.7a99 99 0 0 1 16.5-7c10.4-3.3 21.5-6.5 33.2-9.5a88.2 88.2 0 0 1 57.4 3c14.3 6 27.6 13.2 35.5 26.3a80.6 80.6 0 0 1 12 34.7c.6 7 1.5 13.9 1 21-1 15.6-2.5 28.1-4.8 37.7l-7.8 31.8c-1 4-2.3 8.2-4 12.6-3 8.7-6.6 16.7-16.4 18.9-10.3 2.3-30.4 4.2-39.9-3-15.2-12-2.4-30 2.2-43.8 8.6-26 12.8-52.2 10-78.8-2-18-23.7-19.6-37.2-19.6ZM1595.2 340c-4.2.1-8.5 0-12.7.6a244.1 244.1 0 0 1-35.3 2c-8.9-.2-15.1-4.8-20.7-11.5-6.1-7.5-6.5-17.4-4.2-26.6 1-3.7 3.5-6.1 7.8-7.3 21.6-6 43.4-7.4 65.3-4 .6 0 .9-.2.9-.7.5-18.1.6-36.6.4-55.6 0-9 .8-18.2 2-27.2.9-7.7 4.9-14 12-18.8 8.6-5.8 20.3-11 30.2-5.7 4.7 2.5 9.1 5.5 13.3 9.1 6.4 5.5 7.3 14 7.6 22.1 1.1 27.8-.6 52.6-2.6 79.3-.1 1.3.5 1.9 1.8 1.6a128 128 0 0 1 52.4-1.4 177 177 0 0 1 21.8 5c3 .9 5.6 2.2 7.6 4 7.6 6.8 12 20.8 3.7 29a21 21 0 0 1-10.7 6 94.4 94.4 0 0 1-26.9 1c-10-1-20.5-.3-30.8-1.5-4.2-.5-8.6-.7-13.3-.7-.5 0-.8.2-1 .7-.7 2-1 4.2-.8 6.6 2.7 29.7 5.7 54.7 8.9 75 1.5 9.5 4.2 19.8 8 30.9a31.4 31.4 0 0 0 25 22c3.8.5 8.6.2 14.5-1l26.6-5.5c14-2.9 28.6-5.4 42.6-5.4 9.8 0 18.7 6.7 22.8 15 3.1 6.4 6.3 14 3.6 21-2.6 6.5-7.8 15.3-15 17.1-8 2-16 3.2-24.3 3.7-25.6 1.2-49.5 2-71.6 2.2-9.7 0-19.4-.3-29.1-1a42.2 42.2 0 0 1-19.3-6.5 95.9 95.9 0 0 1-26.7-22 107.8 107.8 0 0 1-20.5-45.2 544 544 0 0 1-6.8-46.2 2302 2302 0 0 1-4.5-58.3c0-1.2-.7-1.8-2-1.8Z" fill="#fff"/><path d="M1492 295a22 22 0 1 0 0-44 22 22 0 0 0 0 44Z" fill="#F9FCF5"/><path d="M1122.6 341.4c7-12.6 17.4-21 31.5-25.3 20-6 39.8-5.4 59.2 1.8a84 84 0 0 1 32.3 25.1 1.8 1.8 0 0 0 2-.4 70.3 70.3 0 0 1 39-21c26.4-4.2 51.2-1.3 74.5 8.7 7.2 3 18.7 9.7 23 17a125.3 125.3 0 0 1 15.3 40.8 107 107 0 0 1 1.5 19.2c.2 25.5 0 47.3-.4 65.4-.2 8-2.3 15.9-6.2 24-2.4 4.7-7 10.8-12.6 10.4a38.4 38.4 0 0 1-32.3-19.9 77 77 0 0 1-10.2-35c-.7-13-1.6-26.5-2.6-40.4a76.2 76.2 0 0 0-8-29.8c-8.4-16.2-32-12.9-45.8-6-9.8 4.8-9.1 23.2-8.8 33 1 25.5 1.2 48.8.5 69.9-.2 6-1.5 12.2-4 18.7-6 15-17.7 16-31.6 13.3-9.8-1.9-18.7-4-23.5-14-7.4-15.2-10-35.7-9.4-52 .6-17.1.6-32.4.2-45.7-.4-11.9-6.5-25-18.8-28.2-6.5-1.7-14.4 3.9-18.8 8.2-7.8 7.8-12 25.2-12 34.7 0 12 .3 26.6 1 44 .6 14.3 3.4 56-19.5 57.9a43.3 43.3 0 0 1-38-14.9c-2.4-2.6-4.2-6-5.5-9.9a150.4 150.4 0 0 1-8.2-45c-.2-22.9-.2-45.2-3.1-68.4-2.2-16.8-19.6-19.5-30.7-8.4a85.8 85.8 0 0 1-23 15.6 21.4 21.4 0 0 1-27-6.8c-5.4-7.1-9.5-15.3-6.7-24 3-9.3 7-16.2 11.9-20.8a63.5 63.5 0 0 1 42.8-17.9c13-.4 26.1 1.8 39.2 6.5 12 4.2 21.8 12.4 31.7 19.9.4.3.8.2 1.1-.3Z" fill="#fff"/><path d="M1491.6 499.8a104 104 0 0 0 7-20.9c1.6-7 2.1-14.3 1.7-22a364.9 364.9 0 0 0-19.8-97.6c-3.6-10.3-.5-18.9 10.9-21.3a36.7 36.7 0 0 1 28.3 4.9c11 6.8 18 21.6 20.8 34.3 4 18.4 8.8 38.4 10.7 56.6 1.5 14.4 2.5 30 2.8 46.8.1 7.8-1 15.7-3.8 23.2-3.3 8.5-6.5 16.6-9.7 24.2a56.1 56.1 0 0 1-15.6 17.5c-6.7 5.6-15.5 8-23.5 10.9-4.3 1.6-9 2.9-14 3.8a191.7 191.7 0 0 1-56.3 4.3c-14-.7-28.2 1.3-41.9-.8-13-2-25-3.8-36.4-8.3-7.3-3-13.6-7-20.5-10.5a31 31 0 0 1-8.5-6c-8-8.3-17-22.6-5-31.6 4.2-3.1 9-4.4 14.7-4a32 32 0 0 1 11.4 3.4l20.3 9.7a90.7 90.7 0 0 0 22.4 7.3c9 1.7 18.2 3.2 27.2 3.1a202 202 0 0 0 38-3.2 81 81 0 0 0 31-14.1 24 24 0 0 0 7.8-9.7ZM2100 482.8c7.1 14 6.7 26.5-1.4 37.6-2.4 3.4-6.5 6-10.7 6.8-14.8 2.8-29-1.4-33.8-17.3-5.2-17.3 9.3-32.6 25.3-34.7 6.8-.9 17.1.9 20.5 7.6Z" fill="#fff"/></g><defs><clipPath id="a"><path fill="#fff" d="M0 0h2105v746H0z"/></clipPath></defs></svg>