<svg width="824" height="1000" fill="none" xmlns="http://www.w3.org/2000/svg"><g clip-path="url(#a)"><path d="m752.7 405.4 12.5 7.5c.3.1.5.4.7.7 2.6 3.5 5.9 6 8.5 9.7l10 13.7a188.6 188.6 0 0 1 18.7 32 121 121 0 0 1 8.7 22 67 67 0 0 0 1.7 5.3c1 2.4 1.2 4.8 2 7.3a138 138 0 0 1 6.9 30.5c.8 5.8 1.2 12 1.2 18.8 0 7.7 0 14.7-.2 21-.1 4.3-.9 9.9-2.3 16.9a918.7 918.7 0 0 1-6.3 29 138.8 138.8 0 0 1-27.7 57.5l-6.5 8.7a44.7 44.7 0 0 1-3.7 4.4 73.8 73.8 0 0 0-3.6 4c-2.5 3.1-5.5 5-8.5 7.5a36 36 0 0 1-3.7 2.7l-12.3 8c-2.7 1.7-5.6 3-8.1 4.9-2 1.3-4.1 2.4-6.2 3.2-3 1.1-5.5 2.6-8.6 3.6a1273 1273 0 0 0-22.1 7.3c-2.3.8-4.5 1.4-6.6 1.9-3 .6-6 1.8-9 2.1-3.6.4-7 1.4-10.6 1.8l-10 1.5c-3.7.6-7.4 1-11 1.4-6 .7-12.1 1.1-18.1 2.3l-7.1 1c-7 1-12.9 1.5-17.8 1.6-7.6.2-15.9.3-24.7.2-2.6 0-5-.2-7-.5-3.3-.5-6.3-.6-9.5-1.4-3.2-.7-6.5-1.3-10-1.7a143.9 143.9 0 0 1-42-12.8 30.5 30.5 0 0 1-7-4.3c-2.8-2.4-5.8-4.3-8.5-7-4.3-4-8.7-7.7-13.3-10.9-4.3-3-7.3-5.4-11.1-8-3.4-2.3-5.3-5.8-7.9-8.9a47.6 47.6 0 0 1-3.7-5c-2.6-4.3-5.5-8.8-8.7-12.7-7-8.5-14.3-16.8-20.3-25.8-5.8-8.8-11.1-17.4-18.5-25-.3-.3-.5-.3-.8-.1-3.8 2.4-7.8 4.7-12 6.8-3.6 1.8-7 4.1-10.7 5.7a1081 1081 0 0 0-11.4 4.8c-3.5 1.5-7 2.8-10.7 3.9a11443.1 11443.1 0 0 1-25.5 7.2l-8.6 2c-9.3 1.6-18.1 3-26.3 4.2a229.9 229.9 0 0 1-36.7 2.6 199.5 199.5 0 0 1-60.1-8.1c-4-1.4-8.2-2.6-12.4-3.6-4.1-1-8.2-2.2-12.1-3.6l-26.3-9.2a265.9 265.9 0 0 1-43.7-23c-3.9-2.7-7.8-5.2-11.6-7.5A107.9 107.9 0 0 1 87 583.6a35.6 35.6 0 0 0-7.7-6A82.9 82.9 0 0 1 62.1 564c-4.4-4.4-7.7-9.6-11.5-14.5-4.9-6.1-9-13.4-13.2-20.3A117.8 117.8 0 0 1 24 497.5c-2.2-8.7-4.9-18.4-8.2-29a633.2 633.2 0 0 1-13.7-57.2c-.4-3.2-1.2-6-1.4-9.3a296 296 0 0 1-.6-25.4c.1-3.7.4-7.3.9-10.9l2.1-14c2.2-12.3 5.9-24.5 10.6-36 4-10 7.4-20.3 11.3-30.2 2.5-6.4 5.2-12.3 8-17.7 1.7-3 5-8.4 10-15.9 4.5-6.6 8.5-13.4 12.6-20.3 1.4-2.4 2.8-4.5 4.3-6.4 2-2.8 3.8-5.7 6.2-8.2 4.4-4.7 8.4-10 12.6-14.6 4.3-4.7 8.3-9.7 13-13.9 2-2 4-4.2 6.4-6a969 969 0 0 0 20-14.8c8-6 16.3-11.3 25.3-15.4a491 491 0 0 0 14.1-6.8c4-2 8.4-3.7 13-5.1 5.9-1.8 12-3.8 18.4-6 2.9-1 5.8-1.5 8.7-2.4 2-.6 4.2-1 6.7-1.4l6.8-.8c9.9-1.2 19.7-1.3 29.4-.5 4 .4 7.3 1.7 11 2.3 3.1.6 5.9 2 8.7 3.2a1.7 1.7 0 0 0 2.3-1c1-2.8 3.2-5.1 4.6-7.7l5.3-10.2c2-3.8 4.7-8.2 7.9-13.1 2.1-3.2 4.6-6.3 7.4-9.1A377.5 377.5 0 0 0 300 81.2c5.2-5.2 10.7-10.5 16.4-15.7 1.3-1.3 2.9-2.5 4.6-3.6l6.5-4.7c6.2-4 12-8.4 17.8-12.9 1.8-1.4 3.6-2.6 5.4-3.7 2.6-1.5 5-3.2 7.6-4.6L378 25.4c3.5-1.8 7-3.3 10.7-4.3l13-3.4c5.4-1.3 10.6-3 15.9-4.6 2.5-.7 4.8-1.2 6.9-1.5 3.1-.4 6.2-1.1 9.4-1.5 3.7-.4 7.2-1 10.7-2 2.1-.6 4.2-1 6.2-1.4 2.9-.4 5.6-1.2 8.4-1.5 4.5-.5 9.2-1 14.2-1.8 5.7-.7 11.2-.3 16.8-.7 9-.7 17.8-1.1 26.4-1.3 1.9 0 3.8-.2 5.8-.5 2.6-.3 5.2 0 7.8-.4 3.6-.5 7.2 0 11-.3 2.9-.3 5.8.3 8.8 0h3.5c4.1 1 8.8 1.3 12.3 2C576.5 4 587 6 597.5 7.8c2.5.5 4.7 1.1 6.6 1.8 3 1 6 1.9 8.9 3.2 4 1.7 8 3.3 12.1 4.6 3.6 1.1 6.9 2.7 10.3 4l4.2 1.9a60816.8 60816.8 0 0 0 29.7 14.2c2 1 4 2.3 5.9 3.6 8 5.8 14.8 11 20.7 15.4A172.5 172.5 0 0 1 729 90.7a356 356 0 0 0 11 14.2 102 102 0 0 1 10.9 17.6c4.1 8.2 8.4 16.3 12.9 24.4a145.7 145.7 0 0 1 12.5 31c.6 3 1.6 5.8 2.2 9 1.8 9.6 3 18 3.5 25.5.3 4.5.4 10.2.3 17.1-.1 5.8 0 11.6.3 17.6.4 10.5.5 20.8.1 30.8a573.8 573.8 0 0 1-6.5 60.8 121 121 0 0 1-3 13.5c-2.1 7.4-4.4 15-6.7 22.4-.8 2.4-1.6 4.7-2.6 6.8-1.3 3-2.4 6.1-4 9-2.9 5-5.3 9.7-7.4 14.5 0 .2 0 .4.2.5Z" fill="#F9FCF5"/><path d="M696.4 412.8c1 .3 2.2.7 3 1.3 3.6 2.5 7.7 4.1 11.3 6.7 3.7 2.6 7.7 5.1 11.7 7.5a101 101 0 0 1 15.1 10.6c2.8 2.3 5 4.9 7 7.7 4.5 6.5 8.8 13 13.4 19.3a78.6 78.6 0 0 1 13 28.7 136.4 136.4 0 0 1 3.6 40.3 98.5 98.5 0 0 1-5.7 29.3c-2.5 7-4.8 14.3-6.9 21.9a69 69 0 0 1-4.6 11.6c-5 10-8.7 17.2-11.4 21.4a79.3 79.3 0 0 1-13.5 16.2c-6.6 6.1-14.3 11-21 17.2-3.5 3.1-6.6 5.6-9.5 7.4-6.9 4.4-13.9 8-21.7 11.4-9.6 4.3-18.7 8.6-28.3 12.2a1678 1678 0 0 1-13 5c-7.3 2.7-17.1 4-25.4 4.3-13.3.5-25.3-.1-36.1-1.9-4.8-.8-9.5-1.7-14.1-3.2-6.2-2-12.4-4.2-18.6-6.8a78.7 78.7 0 0 1-12.3-6.4l-18.6-11.8c-4.5-3-9-6.7-13-10.8a214 214 0 0 0-17.4-16.4c-4.9-4-10.9-10.5-15.1-16.2-3.5-4.6-6.8-9-11.1-13-3.3-3.2-6.5-6.4-9.7-9.8-8-8.5-14.1-19-20.7-28.7a1.3 1.3 0 0 0-1.7-.3c-2.8 1.8-5 4.1-7.9 5.9-11.7 7-23.6 12.9-35.6 19.1-7.8 4-16.1 6.9-24.4 10.2-3 1.2-6 2.1-9 2.8l-19 4.2a152 152 0 0 1-18.6 3 280.7 280.7 0 0 1-32.9 1.3l-34.1-1a90.5 90.5 0 0 1-23.3-3.5 240 240 0 0 1-18.4-6.2 149 149 0 0 1-19.7-9.6l-17.1-9.5c-4.8-2.5-9.6-5.6-14.3-9l-15-11.3a125.2 125.2 0 0 1-20.1-21.4A605 605 0 0 1 94 511.6c-3-4.6-6.2-11.7-9.8-21.3-2.7-7-7-14-10-21L69.5 459a160.7 160.7 0 0 1-13-38.9c-3.3-16-3-32-2.9-48 .1-16.3 2.8-31.3 7.2-48 1.3-5 3.3-10.5 6.1-16.5 3.6-7.7 6.6-13.5 9-17.6 4.5-7.3 9.1-15 13.8-23.2a88 88 0 0 1 17-21.7c5.4-5 10.6-10.1 15.6-15.6a75 75 0 0 1 19-14.7c3-1.6 8.7-5.2 17.4-10.8 2.4-1.5 4.6-2.8 6.8-3.7 3.2-1.4 6.1-3.2 9.4-4.4l15.4-5.7a98.1 98.1 0 0 1 32.5-6.6c6.6-.4 13-1 19-1.5 6.4-.5 14.7-.8 24.7-.6 4.8 0 8.8.4 11.8 1a448.7 448.7 0 0 1 15 2.9l.2-.3a133 133 0 0 1 7.7-15.2c2.2-3.8 4.4-7.7 6.4-11.8A100.7 100.7 0 0 1 334 123c3.5-3.4 6.6-7 9.6-10.8 1.3-1.6 2.6-3 4-4.2 4.8-4 10-7.8 15.6-11.3 10.3-6.5 19.9-12.7 31-17.2 5.8-2.3 11-4.9 16.6-7 11.1-3.9 21.7-6.8 32-8.7l21.2-3.8a242.4 242.4 0 0 1 68.7-2c11.1 1 22.3 3.6 33.5 5.2 3.3.4 6.4 1.4 9.6 2l4 1c8.6 2.6 18 5 26.2 8 7.7 2.7 15.3 6 23.2 8.4 2.4.8 4.7 1.7 6.9 2.8 3 1.6 6 2.8 8.8 4.7 4.6 3 9.7 5.9 15.1 8.7a80.6 80.6 0 0 1 20.6 14.5c5 5 10 9.8 15 14.2 2.6 2.5 5 5.3 7.5 8a95.6 95.6 0 0 1 12.4 19c5.4 11.4 10.5 22.8 15.5 34 2.6 6 4.5 12 5.9 18 4.7 21.4 6.9 43.2 6.6 65.4-.1 10.8-1.6 20.8-3.5 31.3a268 268 0 0 1-11.3 40.6l-14 37.3a94 94 0 0 1-10.3 20l-5.6 7.9-2.5 3c-.3.4-.2.7.2.8Z" fill="#03B3DC"/><path d="M505.7 280a.5.5 0 0 0 0-.5.5.5 0 0 0-.5-.2c-10.6 3-20.4 8.5-29.8 14-5 2.9-10.3 5-15.6 7.2-8 3.3-15.1 8.4-23 12L411 324.6c-6.5 3.2-12.7 5.5-19.4 8-1.4.7-2.9 1-4.3 1-7.4.4-16.3.9-23.7-1-4.9-1.2-9.9-6.3-12.1-10.4-1.7-3.1-3.3-7-4.6-11.6-1.1-3.7-1.5-7.5-1.1-11.6.2-2.6 1.4-6 3.5-10.5 9.9-20.5 20-40.5 30.2-60 3.3-6.2 10-20 20.1-41.2l7.8-15.3c2.7-5.2 6-9.6 9.2-14.5a51.1 51.1 0 0 1 26.5-21.4c4.2-1.6 8-2.2 11.7-1.8 4 .4 8 1.3 12.4 3 5.3 1.8 9.3 5.1 12 9.9 10.6 17.8 2.1 39.9-8 55.9a542 542 0 0 0-25.4 45.2l-2.7 6c-1.2 2.2-.6 2.8 1.6 1.7 7.2-3.6 14.1-7 21.4-10 9.1-3.9 17.7-8.2 27.3-11.8l30.9-12c6.8-2.8 13.8-5 20.7-7.2 5.4-1.8 10-2.9 13.8-3.3 8.4-1 17.5 1 24.2 6.5a37 37 0 0 1 8.1 8.9c1.8 2.9 3.1 6.3 4 10.2.7 3 .6 6.2-.4 9.7a263 263 0 0 1-17.6 48.4c-3.6 7.7-8.8 17.6-15.6 29.6-3.2 5.6-6 11.7-9.3 17.4a3846.6 3846.6 0 0 1-20.8 36 2 2 0 0 0 1.3 2c7.8 3.1 15.1 6.4 21.8 9.8a7.4 7.4 0 0 1 1.6 12.2c-3.7 3.2-7.9 5.4-11.5 8.5-8.3 7.3-16.9 14.2-25.9 20.8-2.5 1.8-5.4 4.7-8.1 6.8l-25 19.4c-8 6.2-16.3 11.9-24.3 18.2-7.5 6-15.7 11.1-23 17.5a147.7 147.7 0 0 1-13.3 9.9.6.6 0 0 1-.5-.3l-.1-.3-.9-22.2a1307 1307 0 0 0-2.6-52c-.8-11.9-1-24.7-1.6-37.2-.6-14-.5-27.7-.5-41.4 0-4.2-.4-8.1-.7-12.2-.3-4.6 4.3-6.2 8.2-6.3 2.7-.1 5.4.4 8 1.5l27 11.6a101.2 101.2 0 0 1 7.7 3.6 2 2 0 0 0 2-1.2c2-3.8 4.4-7.4 6.2-11.3 2.4-5.4 5.5-10.3 8.2-15.5 3-6 6.6-11.7 9.5-17.5l4.7-9.1c2.5-4.6 4.3-9.1 6.1-13.7Z" fill="#F9FCF5"/><path d="M680.5 876.6c-2.4-.2-4.5 0-6.5.6-10.5 2.8-16 10-22.7 17.8-5.7 6.5-9 12-12 19.8a8.9 8.9 0 0 1-6.1 5.7c-3.5 1-6.6 2.6-10.3 3-8.2 1-15.4 1-22.3-2.6-4.7-2.4-6-8.2-6.3-13l-4-52.1a316 316 0 0 1-1.4-26.4v-32.8c.1-10.6 2.8-20.1 8.3-28.6 3.2-4.8 10-5.9 15.4-6 2.8-.1 5.5.5 8.1 1.9 7.5 4 14.6 8.8 13.4 18.1-.8 5.6 0 11.5.1 17.2.2 13.5.5 25.7.4 39.6a1003.3 1003.3 0 0 0 .4 28 .7.7 0 0 0 .6.3l.4-.1c2.7-2.5 5.6-3.7 8.8-5.4 3.4-1.8 6.8-3.3 10.1-4.3 6.5-2 13.4-4 20.6-6a54.8 54.8 0 0 1 35.5 2c9 3.7 17.1 8.1 22 16.2 4 6.6 6.8 13.7 7.5 21.4.3 4.4 1 8.6.6 13a142 142 0 0 1-3 23.2l-4.8 19.7c-.6 2.4-1.4 5-2.4 7.8-2 5.3-4.2 10.3-10.3 11.6-6.4 1.5-18.8 2.6-24.6-1.9-9.5-7.3-1.5-18.4 1.3-27 5.3-16 8-32.2 6.2-48.6-1.2-11.2-14.6-12.1-23-12.1ZM470.8 860.7c-2.6 0-5.3 0-7.9.3-7 1-14.3 1.4-21.8 1.3-5.5-.1-9.3-3-12.7-7.1-3.8-4.7-4-10.8-2.6-16.5.5-2.2 2.1-3.7 4.8-4.5a94.5 94.5 0 0 1 40.3-2.4c.4 0 .5-.1.5-.5.4-11.2.4-22.6.3-34.3 0-5.6.5-11.3 1.2-16.9a16 16 0 0 1 7.4-11.5c5.3-3.6 12.6-6.9 18.7-3.6 2.9 1.5 5.6 3.4 8.2 5.6 4 3.4 4.5 8.7 4.7 13.7.7 17.2-.4 32.5-1.6 49 0 .8.3 1.2 1.1 1a79 79 0 0 1 32.4-.8c4.6.8 9 1.6 13.4 3 2 .6 3.5 1.4 4.7 2.5 4.7 4.2 7.5 12.9 2.3 18a13 13 0 0 1-6.6 3.6c-5.5 1-11 1.1-16.6.6-6.2-.6-12.7-.2-19-.9a67 67 0 0 0-8.2-.4c-.3 0-.5.1-.6.4a9 9 0 0 0-.6 4c1.7 18.5 3.5 34 5.5 46.5 1 5.8 2.6 12.2 5 19 2.5 7.2 8 12.6 15.4 13.6 2.3.4 5.3.1 9-.6a4167 4167 0 0 1 16.4-3.4c8.6-1.8 17.6-3.3 26.3-3.3 6 0 11.5 4.1 14 9.3 2 4 4 8.6 2.3 13-1.6 4-4.8 9.4-9.3 10.5-5 1.3-9.9 2-15 2.3-15.8.8-30.5 1.2-44.2 1.3-6 .1-12-.1-18-.6a26 26 0 0 1-11.9-4 59.2 59.2 0 0 1-16.5-13.6 66.7 66.7 0 0 1-12.6-28c-2.1-11.5-3.5-21-4.2-28.5-1-10.8-2-22.8-2.8-36 0-.8-.4-1.1-1.2-1.1Z" fill="#fff"/><path d="M406.7 832.8a13.6 13.6 0 1 0 0-27.2 13.6 13.6 0 0 0 0 27.2Z" fill="#F9FCF5"/><path d="M178.8 861.4c4.3-7.8 10.8-13 19.5-15.6a56.2 56.2 0 0 1 36.6 1 52 52 0 0 1 20 15.6 1.1 1.1 0 0 0 .9 0l.4-.2a43.4 43.4 0 0 1 24.1-13 81.8 81.8 0 0 1 46 5.3 34 34 0 0 1 14.3 10.5c4.5 7.6 7.6 16 9.4 25.3.6 3.2 1 7.2 1 11.9 0 15.8 0 29.3-.3 40.5-.1 4.9-1.4 9.8-3.8 14.8-1.5 3-4.3 6.7-7.8 6.5-9-.7-15.6-4.8-20-12.3a47.8 47.8 0 0 1-6.3-21.7c-.5-8-1-16.4-1.7-25a47 47 0 0 0-4.8-18.4c-5.3-10-19.8-8-28.4-3.8-6 3-5.6 14.4-5.4 20.4.6 15.8.7 30.3.3 43.3-.1 3.7-1 7.6-2.6 11.6-3.6 9.3-10.9 10-19.4 8.2-6.1-1.2-11.6-2.5-14.6-8.6a72.8 72.8 0 0 1-5.8-32.2c.3-10.6.4-20 .1-28.3-.2-7.4-4-15.5-11.6-17.5-4-1-8.9 2.4-11.6 5.1-4.9 4.8-7.5 15.6-7.5 21.5 0 7.4.2 16.5.7 27.2.3 8.9 2 34.7-12 35.9-9.6.7-17.5-2.3-23.6-9.3a17 17 0 0 1-3.4-6 93 93 0 0 1-5.1-28c-.1-14.1 0-28-2-42.3-1.2-10.4-12-12-18.9-5.2a53 53 0 0 1-14.2 9.7c-6 2.9-12.8 1.2-16.8-4.2-3.2-4.4-5.8-9.5-4-15 1.8-5.7 4.3-10 7.3-12.8 7.4-7 16.3-10.7 26.5-11 8-.3 16.1 1 24.3 4 7.3 2.6 13.4 7.7 19.5 12.3.3.2.5.1.7-.2Z" fill="#fff"/><path d="M406.5 959.6c2-4.1 3.3-8.4 4.3-12.9 1-4.3 1.3-8.8 1-13.6a225.3 225.3 0 0 0-12.1-60.2c-2.2-6.3-.3-11.6 6.7-13.1 6.2-1.4 12-.4 17.4 3 6.8 4.2 11.1 13.4 12.8 21.2 2.5 11.3 5.4 23.6 6.6 34.9 1 8.9 1.5 18.5 1.7 28.9.1 4.8-.5 9.6-2.3 14.3l-6 14.9c-1.7 4-6 7.8-9.6 10.8-4 3.5-9.5 4.9-14.5 6.7a52 52 0 0 1-8.6 2.4 117.8 117.8 0 0 1-34.7 2.7c-8.5-.6-17.3.7-25.8-.6-8-1.3-15.4-2.3-22.4-5.1-4.5-1.8-8.3-4.4-12.6-6.5a19 19 0 0 1-5.2-3.7c-5-5.1-10.5-14-3-19.5a13 13 0 0 1 9-2.5c2 .2 4.3.9 7 2.2l12.5 6c4.5 2 9 3.6 13.8 4.5 5.5 1 11.2 2 16.7 1.9 9.9-.1 17.7-.8 23.4-2a50 50 0 0 0 19.2-8.8c2-1.4 3.6-3.4 4.7-6ZM782.4 949c4.5 8.6 4.2 16.3-.8 23a11 11 0 0 1-6.6 4.2c-9.1 1.8-18-.8-20.9-10.6-3.2-10.5 5.7-19.9 15.7-21.2 4.2-.5 10.5.6 12.6 4.7Z" fill="#fff"/></g><defs><clipPath id="a"><path fill="#fff" d="M0 0h824v1000H0z"/></clipPath></defs></svg>