<svg xmlns="http://www.w3.org/2000/svg" width="824" height="746" fill="none"><g clip-path="url(#a)"><path fill="#F9FCF5" d="m752.7 405.4 12.5 7.5c.3.1.5.4.7.7 2.6 3.5 5.9 6 8.5 9.7l10 13.7a188.616 188.616 0 0 1 18.7 32 120.956 120.956 0 0 1 8.7 22 66.942 66.942 0 0 0 1.7 5.3c1 2.4 1.2 4.8 2 7.3a138.01 138.01 0 0 1 6.9 30.5c.8 5.8 1.2 12 1.2 18.8 0 7.7 0 14.7-.2 21-.1 4.3-.9 9.9-2.3 16.9a919.387 919.387 0 0 1-6.3 29 138.803 138.803 0 0 1-27.7 57.5l-6.5 8.7a44.79 44.79 0 0 1-3.7 4.4 73.732 73.732 0 0 0-3.6 4c-2.5 3.1-5.5 5-8.5 7.5a36.08 36.08 0 0 1-3.7 2.7l-12.3 8c-2.7 1.7-5.6 3-8.1 4.9-2 1.3-4.1 2.4-6.2 3.2-3 1.1-5.5 2.6-8.6 3.6a1268.925 1268.925 0 0 0-22.1 7.3c-2.3.8-4.5 1.4-6.6 1.9-3 .6-6 1.8-9 2.1-3.6.4-7 1.4-10.6 1.8l-10 1.5c-3.7.6-7.4 1-11 1.4-6 .7-12.1 1.1-18.1 2.3l-7.1 1c-7 1-12.9 1.5-17.8 1.6-7.6.2-15.9.3-24.7.2-2.6 0-5-.2-7-.5-3.3-.5-6.3-.6-9.5-1.4-3.2-.7-6.5-1.3-10-1.7a143.9 143.9 0 0 1-42-12.8 30.51 30.51 0 0 1-7-4.3c-2.8-2.4-5.8-4.3-8.5-7-4.3-4-8.7-7.7-13.3-10.9-4.3-3-7.3-5.4-11.1-8-3.4-2.3-5.3-5.8-7.9-8.9a47.535 47.535 0 0 1-3.7-5c-2.6-4.3-5.5-8.8-8.7-12.7-7-8.5-14.3-16.8-20.3-25.8-5.8-8.8-11.1-17.4-18.5-25-.3-.3-.5-.3-.8-.1-3.8 2.4-7.8 4.7-12 6.8-3.6 1.8-7 4.1-10.7 5.7a1072.858 1072.858 0 0 0-11.4 4.8c-3.5 1.5-7 2.8-10.7 3.9-8.497 2.41-16.997 4.81-25.5 7.2l-8.6 2c-9.3 1.6-18.1 3-26.3 4.2a229.888 229.888 0 0 1-36.7 2.6 199.51 199.51 0 0 1-60.1-8.1c-4-1.4-8.2-2.6-12.4-3.6-4.1-1-8.2-2.2-12.1-3.6l-26.3-9.2a265.835 265.835 0 0 1-43.7-23c-3.9-2.7-7.8-5.2-11.6-7.5A107.881 107.881 0 0 1 87 583.6a35.604 35.604 0 0 0-7.7-6A82.907 82.907 0 0 1 62.1 564c-4.4-4.4-7.7-9.6-11.5-14.5-4.9-6.1-9-13.4-13.2-20.3A117.798 117.798 0 0 1 24 497.5c-2.2-8.7-4.9-18.4-8.2-29a633.161 633.161 0 0 1-13.7-57.2c-.4-3.2-1.2-6-1.4-9.3a296.002 296.002 0 0 1-.6-25.4c.1-3.7.4-7.3.9-10.9l2.1-14c2.2-12.3 5.9-24.5 10.6-36 4-10 7.4-20.3 11.3-30.2 2.5-6.4 5.2-12.3 8-17.7 1.7-3 5-8.4 10-15.9 4.5-6.6 8.5-13.4 12.6-20.3 1.4-2.4 2.8-4.5 4.3-6.4 2-2.8 3.8-5.7 6.2-8.2 4.4-4.7 8.4-10 12.6-14.6 4.3-4.7 8.3-9.7 13-13.9 2-2 4-4.2 6.4-6a968.794 968.794 0 0 0 20-14.8c8-6 16.3-11.3 25.3-15.4a493.633 493.633 0 0 0 14.1-6.8c4-2 8.4-3.7 13-5.1 5.9-1.8 12-3.8 18.4-6 2.9-1 5.8-1.5 8.7-2.4 2-.6 4.2-1 6.7-1.4l6.8-.8c9.9-1.2 19.7-1.3 29.4-.5 4 .4 7.3 1.7 11 2.3 3.1.6 5.9 2 8.7 3.2a1.699 1.699 0 0 0 2.3-1c1-2.8 3.2-5.1 4.6-7.7l5.3-10.2c2-3.8 4.7-8.2 7.9-13.1 2.1-3.2 4.6-6.3 7.4-9.1A378.077 378.077 0 0 0 300 81.2c5.2-5.2 10.7-10.5 16.4-15.7 1.3-1.3 2.9-2.5 4.6-3.6l6.5-4.7c6.2-4 12-8.4 17.8-12.9 1.8-1.4 3.6-2.6 5.4-3.7 2.6-1.5 5-3.2 7.6-4.6L378 25.4c3.5-1.8 7-3.3 10.7-4.3l13-3.4c5.4-1.3 10.6-3 15.9-4.6 2.5-.7 4.8-1.2 6.9-1.5 3.1-.4 6.2-1.1 9.4-1.5 3.7-.4 7.2-1 10.7-2 2.1-.6 4.2-1 6.2-1.4 2.9-.4 5.6-1.2 8.4-1.5 4.5-.5 9.2-1 14.2-1.8 5.7-.7 11.2-.3 16.8-.7 9-.7 17.8-1.1 26.4-1.3 1.9 0 3.8-.2 5.8-.5 2.6-.3 5.2 0 7.8-.4 3.6-.5 7.2 0 11-.3 2.9-.3 5.8.3 8.8 0h3.5c4.1 1 8.8 1.3 12.3 2C576.5 4 587 6 597.5 7.8c2.5.5 4.7 1.1 6.6 1.8 3 1 6 1.9 8.9 3.2 4 1.7 8 3.3 12.1 4.6 3.6 1.1 6.9 2.7 10.3 4l4.2 1.9c9.899 4.736 19.799 9.47 29.7 14.2 2 1 4 2.3 5.9 3.6 8 5.8 14.8 11 20.7 15.4A172.484 172.484 0 0 1 729 90.7a355.823 355.823 0 0 0 11 14.2 102 102 0 0 1 10.9 17.6c4.1 8.2 8.4 16.3 12.9 24.4a145.724 145.724 0 0 1 12.5 31c.6 3 1.6 5.8 2.2 9 1.8 9.6 3 18 3.5 25.5.3 4.5.4 10.2.3 17.1-.1 5.8 0 11.6.3 17.6.4 10.5.5 20.8.1 30.8a573.6 573.6 0 0 1-6.5 60.8 120.91 120.91 0 0 1-3 13.5c-2.1 7.4-4.4 15-6.7 22.4-.8 2.4-1.6 4.7-2.6 6.8-1.3 3-2.4 6.1-4 9-2.9 5-5.3 9.7-7.4 14.5 0 .2 0 .4.2.5Z"/><path fill="#03B3DC" d="M696.4 412.8c1 .3 2.2.7 3 1.3 3.6 2.5 7.7 4.1 11.3 6.7 3.7 2.6 7.7 5.1 11.7 7.5a100.94 100.94 0 0 1 15.1 10.6c2.8 2.3 5 4.9 7 7.7 4.5 6.5 8.8 13 13.4 19.3a78.6 78.6 0 0 1 13 28.7 136.397 136.397 0 0 1 3.6 40.3 98.522 98.522 0 0 1-5.7 29.3c-2.5 7-4.8 14.3-6.9 21.9a68.973 68.973 0 0 1-4.6 11.6c-5 10-8.7 17.2-11.4 21.4a79.312 79.312 0 0 1-13.5 16.2c-6.6 6.1-14.3 11-21 17.2-3.5 3.1-6.6 5.6-9.5 7.4-6.9 4.4-13.9 8-21.7 11.4-9.6 4.3-18.7 8.6-28.3 12.2-4.326 1.685-8.66 3.351-13 5-7.3 2.7-17.1 4-25.4 4.3-13.3.5-25.3-.1-36.1-1.9-4.8-.8-9.5-1.7-14.1-3.2-6.2-2-12.4-4.2-18.6-6.8a78.704 78.704 0 0 1-12.3-6.4l-18.6-11.8c-4.5-3-9-6.7-13-10.8a213.968 213.968 0 0 0-17.4-16.4c-4.9-4-10.9-10.5-15.1-16.2-3.5-4.6-6.8-9-11.1-13-3.3-3.2-6.5-6.4-9.7-9.8-8-8.5-14.1-19-20.7-28.7a1.302 1.302 0 0 0-1.7-.3c-2.8 1.8-5 4.1-7.9 5.9-11.7 7-23.6 12.9-35.6 19.1-7.8 4-16.1 6.9-24.4 10.2-3 1.2-6 2.1-9 2.8l-19 4.2a151.854 151.854 0 0 1-18.6 3 280.586 280.586 0 0 1-32.9 1.3l-34.1-1a90.486 90.486 0 0 1-23.3-3.5 240.214 240.214 0 0 1-18.4-6.2 149.032 149.032 0 0 1-19.7-9.6l-17.1-9.5c-4.8-2.5-9.6-5.6-14.3-9l-15-11.3a125.206 125.206 0 0 1-20.1-21.4A605.233 605.233 0 0 1 94 511.6c-3-4.6-6.2-11.7-9.8-21.3-2.7-7-7-14-10-21L69.5 459a160.693 160.693 0 0 1-13-38.9c-3.3-16-3-32-2.9-48 .1-16.3 2.8-31.3 7.2-48 1.3-5 3.3-10.5 6.1-16.5 3.6-7.7 6.6-13.5 9-17.6 4.5-7.3 9.1-15 13.8-23.2a88.003 88.003 0 0 1 17-21.7c5.4-5 10.6-10.1 15.6-15.6a74.989 74.989 0 0 1 19-14.7c3-1.6 8.7-5.2 17.4-10.8 2.4-1.5 4.6-2.8 6.8-3.7 3.2-1.4 6.1-3.2 9.4-4.4l15.4-5.7a98.121 98.121 0 0 1 32.5-6.6c6.6-.4 13-1 19-1.5 6.4-.5 14.7-.8 24.7-.6 4.8 0 8.8.4 11.8 1a446.78 446.78 0 0 1 15 2.9l.2-.3a132.977 132.977 0 0 1 7.7-15.2c2.2-3.8 4.4-7.7 6.4-11.8A100.7 100.7 0 0 1 334 123c3.5-3.4 6.6-7 9.6-10.8 1.3-1.6 2.6-3 4-4.2 4.8-4 10-7.8 15.6-11.3 10.3-6.5 19.9-12.7 31-17.2 5.8-2.3 11-4.9 16.6-7 11.1-3.9 21.7-6.8 32-8.7L464 60a242.401 242.401 0 0 1 68.7-2c11.1 1 22.3 3.6 33.5 5.2 3.3.4 6.4 1.4 9.6 2l4 1c8.6 2.6 18 5 26.2 8 7.7 2.7 15.3 6 23.2 8.4 2.4.8 4.7 1.7 6.9 2.8 3 1.6 6 2.8 8.8 4.7 4.6 3 9.7 5.9 15.1 8.7a80.61 80.61 0 0 1 20.6 14.5c5 5 10 9.8 15 14.2 2.6 2.5 5 5.3 7.5 8a95.585 95.585 0 0 1 12.4 19c5.4 11.4 10.5 22.8 15.5 34 2.6 6 4.5 12 5.9 18 4.7 21.4 6.9 43.2 6.6 65.4-.1 10.8-1.6 20.8-3.5 31.3a267.94 267.94 0 0 1-11.3 40.6l-14 37.3a93.957 93.957 0 0 1-10.3 20l-5.6 7.9-2.5 3c-.3.4-.2.7.2.8h-.1Z"/><path fill="#F9FCF5" d="M505.7 280a.498.498 0 0 0 0-.5.495.495 0 0 0-.5-.2c-10.6 3-20.4 8.5-29.8 14-5 2.9-10.3 5-15.6 7.2-8 3.3-15.1 8.4-23 12L411 324.6c-6.5 3.2-12.7 5.5-19.4 8-1.4.7-2.9 1-4.3 1-7.4.4-16.3.9-23.7-1-4.9-1.2-9.9-6.3-12.1-10.4-1.7-3.1-3.3-7-4.6-11.6-1.1-3.7-1.5-7.5-1.1-11.6.2-2.6 1.4-6 3.5-10.5 9.9-20.5 20-40.5 30.2-60 3.3-6.2 10-20 20.1-41.2l7.8-15.3c2.7-5.2 6-9.6 9.2-14.5a51.1 51.1 0 0 1 26.5-21.4c4.2-1.6 8-2.2 11.7-1.8 4 .4 8 1.3 12.4 3 5.3 1.8 9.3 5.1 12 9.9 10.6 17.8 2.1 39.9-8 55.9a542.092 542.092 0 0 0-25.4 45.2l-2.7 6c-1.2 2.2-.6 2.8 1.6 1.7 7.2-3.6 14.1-7 21.4-10 9.1-3.9 17.7-8.2 27.3-11.8l30.9-12c6.8-2.8 13.8-5 20.7-7.2 5.4-1.8 10-2.9 13.8-3.3 8.4-1 17.5 1 24.2 6.5a36.988 36.988 0 0 1 8.1 8.9c1.8 2.9 3.1 6.3 4 10.2.7 3 .6 6.2-.4 9.7a263.004 263.004 0 0 1-17.6 48.4c-3.6 7.7-8.8 17.6-15.6 29.6-3.2 5.6-6 11.7-9.3 17.4a3839.319 3839.319 0 0 1-20.8 36 1.999 1.999 0 0 0 1.3 2c7.8 3.1 15.1 6.4 21.8 9.8a7.394 7.394 0 0 1 4.06 5.672 7.403 7.403 0 0 1-2.46 6.528c-3.7 3.2-7.9 5.4-11.5 8.5-8.3 7.3-16.9 14.2-25.9 20.8-2.5 1.8-5.4 4.7-8.1 6.8l-25 19.4c-8 6.2-16.3 11.9-24.3 18.2-7.5 6-15.7 11.1-23 17.5a147.673 147.673 0 0 1-13.3 9.9.603.603 0 0 1-.5-.3l-.1-.3-.9-22.2a1306.107 1306.107 0 0 0-2.6-52c-.8-11.9-1-24.7-1.6-37.2-.6-14-.5-27.7-.5-41.4 0-4.2-.4-8.1-.7-12.2-.3-4.6 4.3-6.2 8.2-6.3 2.7-.1 5.4.4 8 1.5l27 11.6a101.43 101.43 0 0 1 7.7 3.6 2.004 2.004 0 0 0 2-1.2c2-3.8 4.4-7.4 6.2-11.3 2.4-5.4 5.5-10.3 8.2-15.5 3-6 6.6-11.7 9.5-17.5l4.7-9.1c2.5-4.6 4.3-9.1 6.1-13.7Z"/></g><defs><clipPath id="a"><path fill="#fff" d="M0 0h824v746H0z"/></clipPath></defs></svg>